<svg xmlns="http://www.w3.org/2000/svg" width="66.826" height="52.844" viewBox="0 0 66.826 52.844">
  <path id="_33f5a91e9e_1_" data-name="33f5a91e9e (1)" d="M132.75,209.876a12.435,12.435,0,1,0,12.144,12.432,12.291,12.291,0,0,0-12.144-12.432ZM112.5,194.316h-7.07v3.137h7.07v-3.137Zm49.349,6.237h-13.23a11.166,11.166,0,0,1-3.29-4.36c-1.329-2.809-6.119-2.9-6.119-2.9H123.79s-1.577-.4-3.433,2.864a14.238,14.238,0,0,1-3.463,4.392H103.649a4.5,4.5,0,0,0-4.311,4.674v36.223a4.5,4.5,0,0,0,4.311,4.675h58.2a4.5,4.5,0,0,0,4.312-4.675V205.226a4.5,4.5,0,0,0-4.312-4.673Zm-29.109,37.313a15.547,15.547,0,1,1,15.177-15.543,15.363,15.363,0,0,1-15.177,15.543Zm21.763-27.987a2.6,2.6,0,1,1,2.528-2.595,2.561,2.561,0,0,1-2.528,2.595Zm0,0" transform="translate(-99.337 -193.281)" fill="#262626"/>
</svg>
