<svg xmlns="http://www.w3.org/2000/svg" width="43.925" height="49.319" viewBox="0 0 43.925 49.319">
  <path id="_6e1b86c79c" data-name="6e1b86c79c" d="M128.374,44.594a4.231,4.231,0,0,0-2.994-1.243h-7.966a9.826,9.826,0,0,0-19.516,0H89.932a4.246,4.246,0,0,0-4.238,4.238V79.761A4.246,4.246,0,0,0,89.932,84H125.38a4.246,4.246,0,0,0,4.238-4.238V47.59a4.233,4.233,0,0,0-1.245-3ZM123.4,58.935h0c.94.277.166,2.136-.952,1.921-.794-.152-.611-2.385.952-1.921Zm-1.6-1.643h0c1.194.354.21,2.714-1.21,2.441C119.59,59.54,119.821,56.7,121.807,57.292Zm-4.26,2.052c-1.312-.252-.855-4.109,1.728-3.343h0C120.83,56.463,119.4,59.7,117.548,59.344Zm-15.2-20.152a7.516,7.516,0,0,1,10.627,0h0a7.514,7.514,0,1,1-10.627,0ZM96.62,56h0c2.583-.767,3.04,3.09,1.728,3.343C96.5,59.7,95.065,56.463,96.62,56Zm-2.531,1.291h0c1.986-.59,2.218,2.248,1.21,2.441C93.878,60.006,92.894,57.646,94.088,57.292Zm-1.6,1.643h0c1.562-.464,1.745,1.769.952,1.921-1.117.216-1.892-1.643-.952-1.921Zm-1.381,4.735c-.832.16-1.41-1.225-.709-1.434C91.568,61.89,91.7,63.557,91.112,63.671Zm.878-1.526c-.975.189-1.649-1.432-.828-1.676h0C92.524,60.064,92.682,62.012,91.99,62.145Zm11.422,15.72a2.745,2.745,0,0,1-4.292,2.129c-1.755-1.189-2.364-4.163-3.4-6.583a27.912,27.912,0,0,0-2.347-4.04c-1.173-1.823-1.643-3.874.17-5.9A7.477,7.477,0,0,1,98.29,60.74h0c2.127-.208,3.289,1.364,3.1,3.722-.156,1.961-1.04,3.36-.75,5.306.385,2.587,2.936,4.537,2.77,8.1ZM99.619,52.543a11.338,11.338,0,0,1-3.271-6.88H97.9a9.827,9.827,0,0,0,19.516,0h1.553a11.369,11.369,0,0,1-19.348,6.88Zm22.907,16.828a27.915,27.915,0,0,0-2.347,4.04c-1.04,2.42-1.649,5.394-3.4,6.583a2.745,2.745,0,0,1-4.292-2.129c-.166-3.56,2.385-5.51,2.77-8.1.291-1.946-.593-3.344-.75-5.306-.187-2.358.975-3.93,3.1-3.722h0a7.478,7.478,0,0,1,4.751,2.728c1.813,2.028,1.343,4.08.17,5.9Zm1.379-7.226c-.692-.133-.534-2.081.828-1.676h0C125.554,60.713,124.88,62.334,123.905,62.145Zm.878,1.526c-.591-.114-.456-1.78.709-1.434C126.194,62.445,125.616,63.831,124.784,63.671ZM107.656,46.819a1.541,1.541,0,0,0,1.541-1.541,1.519,1.519,0,0,0-.208-.773l2.134-3.7a.768.768,0,1,0-1.329-.771l-2.137,3.7h0a1.541,1.541,0,0,0,0,3.082Z" transform="translate(-85.694 -34.68)"/>
</svg>
